<svg width="512" height="512" viewBox="0 0 512 512" fill="none" xmlns="http://www.w3.org/2000/svg">
<rect width="512" height="512" rx="90" fill="#F1F3F9"/>
<path d="M231.357 143.357V369H176.393V276.107H90.8929V369H35.9286V143.357H90.8929V231.75H176.393V143.357H231.357Z" fill="black"/>
<path d="M261.715 255.857C261.715 233.571 266.536 213.75 276.179 196.393C285.822 178.821 299.215 165.214 316.357 155.571C333.715 145.714 353.322 140.786 375.179 140.786C401.965 140.786 424.893 147.857 443.965 162C463.036 176.143 475.786 195.429 482.215 219.857H421.786C417.286 210.429 410.857 203.25 402.5 198.321C394.357 193.393 385.036 190.929 374.536 190.929C357.607 190.929 343.893 196.821 333.393 208.607C322.893 220.393 317.643 236.143 317.643 255.857C317.643 275.571 322.893 291.321 333.393 303.107C343.893 314.893 357.607 320.786 374.536 320.786C385.036 320.786 394.357 318.321 402.5 313.393C410.857 308.464 417.286 301.286 421.786 291.857H482.215C475.786 316.286 463.036 335.571 443.965 349.714C424.893 363.643 401.965 370.607 375.179 370.607C353.322 370.607 333.715 365.786 316.357 356.143C299.215 346.286 285.822 332.679 276.179 315.321C266.536 297.964 261.715 278.143 261.715 255.857Z" fill="#4379EE"/>
</svg>
