<svg width="1228" height="329" viewBox="0 0 1228 329" fill="none" xmlns="http://www.w3.org/2000/svg">
<path d="M154.363 92.2647V254H114.966V187.417H53.6814V254H14.2843V92.2647H53.6814V155.623H114.966V92.2647H154.363ZM241.323 255.843C228.728 255.843 217.362 253.155 207.225 247.779C197.241 242.404 189.331 234.724 183.495 224.74C177.812 214.757 174.97 203.083 174.97 189.721C174.97 176.511 177.889 164.915 183.725 154.931C189.562 144.794 197.549 137.038 207.686 131.662C217.823 126.286 229.189 123.598 241.784 123.598C254.379 123.598 265.745 126.286 275.882 131.662C286.019 137.038 294.006 144.794 299.843 154.931C305.679 164.915 308.598 176.511 308.598 189.721C308.598 202.93 305.603 214.603 299.612 224.74C293.776 234.724 285.712 242.404 275.421 247.779C265.284 253.155 253.918 255.843 241.323 255.843ZM241.323 221.745C248.849 221.745 255.223 218.98 260.446 213.451C265.822 207.922 268.509 200.011 268.509 189.721C268.509 179.43 265.898 171.52 260.676 165.99C255.607 160.461 249.31 157.696 241.784 157.696C234.104 157.696 227.73 160.461 222.661 165.99C217.593 171.366 215.058 179.276 215.058 189.721C215.058 200.011 217.516 207.922 222.431 213.451C227.5 218.98 233.797 221.745 241.323 221.745ZM368.896 146.868C373.503 139.802 379.263 134.273 386.175 130.279C393.087 126.132 400.767 124.059 409.214 124.059V165.76H398.386C388.556 165.76 381.183 167.91 376.268 172.211C371.353 176.358 368.896 183.73 368.896 194.328V254H329.499V125.441H368.896V146.868ZM480.344 255.843C469.132 255.843 459.148 253.923 450.393 250.083C441.638 246.243 434.727 241.021 429.658 234.417C424.589 227.658 421.748 220.132 421.133 211.838H460.07C460.53 216.292 462.604 219.902 466.29 222.667C469.977 225.431 474.508 226.814 479.883 226.814C484.798 226.814 488.562 225.892 491.173 224.049C493.937 222.052 495.32 219.518 495.32 216.446C495.32 212.76 493.4 210.072 489.56 208.382C485.72 206.539 479.499 204.542 470.898 202.392C461.682 200.242 454.003 198.015 447.859 195.711C441.715 193.253 436.416 189.49 431.962 184.422C427.508 179.199 425.28 172.211 425.28 163.456C425.28 156.083 427.277 149.402 431.271 143.412C435.418 137.268 441.408 132.43 449.241 128.897C457.228 125.364 466.674 123.598 477.579 123.598C493.707 123.598 506.379 127.592 515.594 135.578C524.963 143.565 530.339 154.163 531.722 167.373H495.32C494.705 162.918 492.709 159.386 489.329 156.775C486.104 154.163 481.803 152.858 476.428 152.858C471.82 152.858 468.287 153.779 465.829 155.623C463.372 157.312 462.143 159.693 462.143 162.765C462.143 166.451 464.063 169.216 467.903 171.059C471.896 172.902 478.04 174.745 486.334 176.588C495.857 179.046 503.614 181.503 509.604 183.961C515.594 186.265 520.816 190.105 525.271 195.48C529.878 200.703 532.259 207.768 532.413 216.676C532.413 224.203 530.262 230.961 525.962 236.951C521.815 242.788 515.748 247.395 507.761 250.775C499.928 254.154 490.789 255.843 480.344 255.843Z" fill="black"/>
<path d="M549.834 172.902C549.834 156.928 553.29 142.721 560.202 130.279C567.114 117.685 576.713 107.931 589.001 101.02C601.442 93.9543 615.496 90.4216 631.163 90.4216C650.362 90.4216 666.797 95.4902 680.467 105.627C694.137 115.765 703.276 129.588 707.883 147.098H664.57C661.344 140.34 656.736 135.194 650.746 131.662C644.91 128.129 638.228 126.363 630.702 126.363C618.568 126.363 608.738 130.587 601.212 139.034C593.686 147.482 589.923 158.771 589.923 172.902C589.923 187.033 593.686 198.322 601.212 206.77C608.738 215.217 618.568 219.441 630.702 219.441C638.228 219.441 644.91 217.675 650.746 214.142C656.736 210.609 661.344 205.464 664.57 198.706H707.883C703.276 216.216 694.137 230.039 680.467 240.176C666.797 250.16 650.362 255.152 631.163 255.152C615.496 255.152 601.442 251.696 589.001 244.784C576.713 237.719 567.114 227.966 560.202 215.525C553.29 203.083 549.834 188.876 549.834 172.902ZM771.407 83.5098V254H732.01V83.5098H771.407ZM792.124 189.49C792.124 176.281 794.582 164.685 799.497 154.701C804.565 144.717 811.4 137.038 820.002 131.662C828.603 126.286 838.203 123.598 848.801 123.598C857.863 123.598 865.773 125.441 872.531 129.127C879.443 132.814 884.742 137.652 888.428 143.642V125.441H927.825V254H888.428V235.799C884.588 241.789 879.212 246.627 872.301 250.314C865.542 254 857.632 255.843 848.57 255.843C838.126 255.843 828.603 253.155 820.002 247.779C811.4 242.25 804.565 234.493 799.497 224.51C794.582 214.373 792.124 202.699 792.124 189.49ZM888.428 189.721C888.428 179.891 885.663 172.134 880.134 166.451C874.758 160.768 868.154 157.926 860.32 157.926C852.487 157.926 845.806 160.768 840.276 166.451C834.9 171.98 832.212 179.66 832.212 189.49C832.212 199.32 834.9 207.154 840.276 212.99C845.806 218.673 852.487 221.515 860.32 221.515C868.154 221.515 874.758 218.673 880.134 212.99C885.663 207.307 888.428 199.551 888.428 189.721ZM1008.63 255.843C997.414 255.843 987.43 253.923 978.675 250.083C969.92 246.243 963.008 241.021 957.94 234.417C952.871 227.658 950.03 220.132 949.415 211.838H988.352C988.812 216.292 990.886 219.902 994.572 222.667C998.258 225.431 1002.79 226.814 1008.17 226.814C1013.08 226.814 1016.84 225.892 1019.45 224.049C1022.22 222.052 1023.6 219.518 1023.6 216.446C1023.6 212.76 1021.68 210.072 1017.84 208.382C1014 206.539 1007.78 204.542 999.18 202.392C989.964 200.242 982.285 198.015 976.141 195.711C969.997 193.253 964.698 189.49 960.244 184.422C955.79 179.199 953.562 172.211 953.562 163.456C953.562 156.083 955.559 149.402 959.553 143.412C963.7 137.268 969.69 132.43 977.523 128.897C985.51 125.364 994.956 123.598 1005.86 123.598C1021.99 123.598 1034.66 127.592 1043.88 135.578C1053.25 143.565 1058.62 154.163 1060 167.373H1023.6C1022.99 162.918 1020.99 159.386 1017.61 156.775C1014.39 154.163 1010.09 152.858 1004.71 152.858C1000.1 152.858 996.569 153.779 994.111 155.623C991.654 157.312 990.425 159.693 990.425 162.765C990.425 166.451 992.345 169.216 996.185 171.059C1000.18 172.902 1006.32 174.745 1014.62 176.588C1024.14 179.046 1031.9 181.503 1037.89 183.961C1043.88 186.265 1049.1 190.105 1053.55 195.48C1058.16 200.703 1060.54 207.768 1060.69 216.676C1060.69 224.203 1058.54 230.961 1054.24 236.951C1050.1 242.788 1044.03 247.395 1036.04 250.775C1028.21 254.154 1019.07 255.843 1008.63 255.843ZM1137.1 255.843C1125.88 255.843 1115.9 253.923 1107.15 250.083C1098.39 246.243 1091.48 241.021 1086.41 234.417C1081.34 227.658 1078.5 220.132 1077.89 211.838H1116.82C1117.28 216.292 1119.36 219.902 1123.04 222.667C1126.73 225.431 1131.26 226.814 1136.64 226.814C1141.55 226.814 1145.31 225.892 1147.93 224.049C1150.69 222.052 1152.07 219.518 1152.07 216.446C1152.07 212.76 1150.15 210.072 1146.31 208.382C1142.47 206.539 1136.25 204.542 1127.65 202.392C1118.43 200.242 1110.76 198.015 1104.61 195.711C1098.47 193.253 1093.17 189.49 1088.71 184.422C1084.26 179.199 1082.03 172.211 1082.03 163.456C1082.03 156.083 1084.03 149.402 1088.02 143.412C1092.17 137.268 1098.16 132.43 1105.99 128.897C1113.98 125.364 1123.43 123.598 1134.33 123.598C1150.46 123.598 1163.13 127.592 1172.35 135.578C1181.72 143.565 1187.09 154.163 1188.47 167.373H1152.07C1151.46 162.918 1149.46 159.386 1146.08 156.775C1142.86 154.163 1138.56 152.858 1133.18 152.858C1128.57 152.858 1125.04 153.779 1122.58 155.623C1120.12 157.312 1118.9 159.693 1118.9 162.765C1118.9 166.451 1120.82 169.216 1124.66 171.059C1128.65 172.902 1134.79 174.745 1143.09 176.588C1152.61 179.046 1160.37 181.503 1166.36 183.961C1172.35 186.265 1177.57 190.105 1182.02 195.48C1186.63 200.703 1189.01 207.768 1189.17 216.676C1189.17 224.203 1187.02 230.961 1182.71 236.951C1178.57 242.788 1172.5 247.395 1164.51 250.775C1156.68 254.154 1147.54 255.843 1137.1 255.843Z" fill="#4379EE"/>
</svg>
